{
    "asset" : {
        "generator" : "Khronos glTF Blender I/O v1.6.16",
        "version" : "2.0"
    },
    "scene" : 0,
    "scenes" : [
        {
            "name" : "Scene",
            "nodes" : [
                0
            ]
        }
    ],
    "nodes" : [
        {
            "mesh" : 0,
            "name" : "building-block-4floor-short"
        }
    ],
    "materials" : [
        {
            "doubleSided" : true,
            "name" : "Material",
            "pbrMetallicRoughness" : {
                "baseColorFactor" : [
                    0.800000011920929,
                    0.800000011920929,
                    0.800000011920929,
                    1
                ],
                "metallicFactor" : 0,
                "roughnessFactor" : 0.4000000059604645
            }
        }
    ],
    "meshes" : [
        {
            "name" : "building-block-4floor-short.001",
            "primitives" : [
                {
                    "attributes" : {
                        "POSITION" : 0,
                        "NORMAL" : 1,
                        "TEXCOORD_0" : 2,
                        "COLOR_0" : 3
                    },
                    "indices" : 4,
                    "material" : 0
                }
            ]
        }
    ],
    "accessors" : [
        {
            "bufferView" : 0,
            "componentType" : 5126,
            "count" : 6061,
            "max" : [
                4.754659652709961,
                20.961868286132812,
                6.1121416091918945
            ],
            "min" : [
                -4.145334243774414,
                0.3548545837402344,
                -7.333136558532715
            ],
            "type" : "VEC3"
        },
        {
            "bufferView" : 1,
            "componentType" : 5126,
            "count" : 6061,
            "type" : "VEC3"
        },
        {
            "bufferView" : 2,
            "componentType" : 5126,
            "count" : 6061,
            "type" : "VEC2"
        },
        {
            "bufferView" : 3,
            "componentType" : 5123,
            "count" : 6061,
            "normalized" : true,
            "type" : "VEC4"
        },
        {
            "bufferView" : 4,
            "componentType" : 5123,
            "count" : 10341,
            "type" : "SCALAR"
        }
    ],
    "bufferViews" : [
        {
            "buffer" : 0,
            "byteLength" : 72732,
            "byteOffset" : 0
        },
        {
            "buffer" : 0,
            "byteLength" : 72732,
            "byteOffset" : 72732
        },
        {
            "buffer" : 0,
            "byteLength" : 48488,
            "byteOffset" : 145464
        },
        {
            "buffer" : 0,
            "byteLength" : 48488,
            "byteOffset" : 193952
        },
        {
            "buffer" : 0,
            "byteLength" : 20682,
            "byteOffset" : 242440
        }
    ],
    "buffers" : [
        {
            "byteLength" : 263124,
            "uri" : "base.bin"
        }
    ]
}
