<?xml version="1.0" encoding="UTF-8"?>
<svg width="17px" height="16px" viewBox="0 0 17 16" version="1.1" xmlns="http://www.w3.org/2000/svg" xmlns:xlink="http://www.w3.org/1999/xlink">
    <title>Path Copy 3</title>
    <g id="Page-2" stroke="none" stroke-width="1" fill="none" fill-rule="evenodd">
        <g id="V3.1-Home-Map3" transform="translate(-512.000000, -741.000000)" fill-rule="nonzero" stroke="#000000" stroke-width="2">
            <g id="Group-3" transform="translate(502.000000, 703.000000)">
                <path d="M18.4076278,39.145914 C18.3143931,39.0524967 18.1878301,39 18.0558472,39 C17.9238643,39 17.7973013,39.0524967 17.7040666,39.145914 L11.2926317,45.5526793 C11.1058455,45.7394654 11,45.9931833 11,46.257797 C11,46.8072596 11.4467302,47.2539899 11.9961929,47.2539899 L12.6717361,47.2539899 L12.6717361,51.8255811 C12.6717361,52.1010907 12.894323,52.3236776 13.1698326,52.3236776 L22.9418619,52.3236776 C23.2173714,52.3236776 23.4399583,52.1010907 23.4399583,51.8255811 L23.4399583,47.2539899 L24.1155016,47.2539899 C24.3801153,47.2539899 24.6338332,47.1497009 24.8206193,46.9613582 C25.2082006,46.5722204 25.2082006,45.9418171 24.8190628,45.5526793 L18.4076278,39.145914 Z" id="Path-Copy-3"></path>
            </g>
        </g>
    </g>
</svg>